<svg width="152" height="152" viewBox="0 0 152 152" fill="none" xmlns="http://www.w3.org/2000/svg">
<mask id="path-1-inside-1" fill="white">
<path fill-rule="evenodd" clip-rule="evenodd" d="M51 1H1V51H51V1ZM27.6399 33.8252L9.00002 37.0854V14.7801L27.6399 18.1031L43 18.1104V21.5497H30.6566V30.3933H39.5439V27.9368H36.5815V24.9889H43V33.8325L27.6399 33.8252ZM24.2752 30.7859V21.1291L12.4539 19.0799V32.8351L19.2626 31.6548L17.3794 27.9225H20.8114L22.4185 31.1078L24.2752 30.7859Z"/>
</mask>
<path fill-rule="evenodd" clip-rule="evenodd" d="M51 1H1V51H51V1ZM27.6399 33.8252L9.00002 37.0854V14.7801L27.6399 18.1031L43 18.1104V21.5497H30.6566V30.3933H39.5439V27.9368H36.5815V24.9889H43V33.8325L27.6399 33.8252ZM24.2752 30.7859V21.1291L12.4539 19.0799V32.8351L19.2626 31.6548L17.3794 27.9225H20.8114L22.4185 31.1078L24.2752 30.7859Z" fill="white"/>
<path d="M1 1V-2H-2V1H1ZM51 1H54V-2H51V1ZM1 51H-2V54H1V51ZM51 51V54H54V51H51ZM9.00002 37.0854H6.00002V40.6556L9.51689 40.0405L9.00002 37.0854ZM27.6399 33.8252L27.6413 30.8252L27.3802 30.8251L27.123 30.8701L27.6399 33.8252ZM9.00002 14.7801L9.52654 11.8267L6.00002 11.198V14.7801H9.00002ZM27.6399 18.1031L27.1134 21.0565L27.3739 21.103L27.6385 21.1031L27.6399 18.1031ZM43 18.1104H46V15.1119L43.0015 15.1104L43 18.1104ZM43 21.5497V24.5497H46V21.5497H43ZM30.6566 21.5497V18.5497H27.6566V21.5497H30.6566ZM30.6566 30.3933H27.6566V33.3933H30.6566V30.3933ZM39.5439 30.3933V33.3933H42.5439V30.3933H39.5439ZM39.5439 27.9368H42.5439V24.9368H39.5439V27.9368ZM36.5815 27.9368H33.5815V30.9368H36.5815V27.9368ZM36.5815 24.9889V21.9889H33.5815V24.9889H36.5815ZM43 24.9889H46V21.9889H43V24.9889ZM43 33.8325L42.9986 36.8325L46 36.834V33.8325H43ZM24.2752 21.1291H27.2752V18.6044L24.7876 18.1732L24.2752 21.1291ZM24.2752 30.7859L24.7877 33.7418L27.2752 33.3105V30.7859H24.2752ZM12.4539 19.0799L12.9663 16.1239L9.45393 15.5151V19.0799H12.4539ZM12.4539 32.8351H9.45393V36.3999L12.9663 35.791L12.4539 32.8351ZM19.2626 31.6548L19.775 34.6107L23.7652 33.919L21.941 30.3034L19.2626 31.6548ZM17.3794 27.9225V24.9225H12.5056L14.7011 29.2739L17.3794 27.9225ZM20.8114 27.9225L23.4898 26.5711L22.658 24.9225H20.8114V27.9225ZM22.4185 31.1078L19.7401 32.4591L20.7412 34.4433L22.931 34.0637L22.4185 31.1078ZM1 4H51V-2H1V4ZM4 51V1H-2V51H4ZM51 48H1V54H51V48ZM48 1V51H54V1H48ZM9.51689 40.0405L28.1568 36.7803L27.123 30.8701L8.48316 34.1302L9.51689 40.0405ZM6.00002 14.7801V37.0854H12V14.7801H6.00002ZM28.1664 15.1497L9.52654 11.8267L8.47351 17.7336L27.1134 21.0565L28.1664 15.1497ZM43.0015 15.1104L27.6413 15.1031L27.6385 21.1031L42.9986 21.1104L43.0015 15.1104ZM46 21.5497V18.1104H40V21.5497H46ZM30.6566 24.5497H43V18.5497H30.6566V24.5497ZM33.6566 30.3933V21.5497H27.6566V30.3933H33.6566ZM39.5439 27.3933H30.6566V33.3933H39.5439V27.3933ZM36.5439 27.9368V30.3933H42.5439V27.9368H36.5439ZM36.5815 30.9368H39.5439V24.9368H36.5815V30.9368ZM33.5815 24.9889V27.9368H39.5815V24.9889H33.5815ZM43 21.9889H36.5815V27.9889H43V21.9889ZM46 33.8325V24.9889H40V33.8325H46ZM27.6385 36.8252L42.9986 36.8325L43.0015 30.8325L27.6413 30.8252L27.6385 36.8252ZM21.2752 21.1291V30.7859H27.2752V21.1291H21.2752ZM11.9415 22.0358L23.7628 24.085L24.7876 18.1732L12.9663 16.1239L11.9415 22.0358ZM15.4539 32.8351V19.0799H9.45393V32.8351H15.4539ZM18.7502 28.6989L11.9415 29.8792L12.9663 35.791L19.775 34.6107L18.7502 28.6989ZM14.7011 29.2739L16.5842 33.0062L21.941 30.3034L20.0578 26.5711L14.7011 29.2739ZM20.8114 24.9225H17.3794V30.9225H20.8114V24.9225ZM25.0969 29.7564L23.4898 26.5711L18.133 29.2739L19.7401 32.4591L25.0969 29.7564ZM23.7627 27.83L21.906 28.1519L22.931 34.0637L24.7877 33.7418L23.7627 27.83Z" fill="white" mask="url(#path-1-inside-1)"/>
<rect x="51.5" y="1.5" width="49" height="49" stroke="white"/>
<rect x="101.5" y="1.5" width="49" height="49" stroke="white"/>
<rect x="1.5" y="51.5" width="49" height="49" stroke="white"/>
<rect x="51.5" y="51.5" width="49" height="49" stroke="white"/>
<rect x="101.5" y="51.5" width="49" height="49" stroke="white"/>
<rect x="1.5" y="101.5" width="49" height="49" stroke="white"/>
<rect x="51.5" y="101.5" width="49" height="49" stroke="white"/>
<rect x="101.5" y="101.5" width="49" height="49" stroke="white"/>
<rect x="0.5" y="0.5" width="151" height="151" stroke="white"/>
<path d="M126.023 23.4766L130.113 16.9375H132.762L127.371 25.3984L132.891 34H130.219L126.023 27.3438L121.805 34H119.145L124.676 25.3984L119.273 16.9375H121.91L126.023 23.4766Z" fill="white"/>
<path d="M80.8047 26.1133H73.4102V32.1602H82V34H71.1602V16.9375H81.8828V18.7891H73.4102V24.2734H80.8047V26.1133Z" fill="white"/>
<path d="M29.5742 79.5469H22.4258L20.8203 84H18.5L25.0156 66.9375H26.9844L33.5117 84H31.2031L29.5742 79.5469ZM23.1055 77.6953H28.9062L26 69.7148L23.1055 77.6953Z" fill="white"/>
<path d="M70.4102 66.9375L75.9883 80.8594L81.5664 66.9375H84.4844V84H82.2344V77.3555L82.4453 70.1836L76.8438 84H75.1211L69.5312 70.2188L69.7539 77.3555V84H67.5039V66.9375H70.4102Z" fill="white"/>
<path d="M122.66 77.3203V84H120.41V66.9375H126.703C128.57 66.9375 130.031 67.4141 131.086 68.3672C132.148 69.3203 132.68 70.582 132.68 72.1523C132.68 73.8086 132.16 75.0859 131.121 75.9844C130.09 76.875 128.609 77.3203 126.68 77.3203H122.66ZM122.66 75.4805H126.703C127.906 75.4805 128.828 75.1992 129.469 74.6367C130.109 74.0664 130.43 73.2461 130.43 72.1758C130.43 71.1602 130.109 70.3477 129.469 69.7383C128.828 69.1289 127.949 68.8125 126.832 68.7891H122.66V75.4805Z" fill="white"/>
<path d="M23.7852 132.16H31.8711V134H21.5234V116.938H23.7852V132.16Z" fill="white"/>
<path d="M80.8047 126.113H73.4102V132.16H82V134H71.1602V116.938H81.8828V118.789H73.4102V124.273H80.8047V126.113Z" fill="white"/>
<path d="M125.883 126.395C123.953 125.84 122.547 125.16 121.664 124.355C120.789 123.543 120.352 122.543 120.352 121.355C120.352 120.012 120.887 118.902 121.957 118.027C123.035 117.145 124.434 116.703 126.152 116.703C127.324 116.703 128.367 116.93 129.281 117.383C130.203 117.836 130.914 118.461 131.414 119.258C131.922 120.055 132.176 120.926 132.176 121.871H129.914C129.914 120.84 129.586 120.031 128.93 119.445C128.273 118.852 127.348 118.555 126.152 118.555C125.043 118.555 124.176 118.801 123.551 119.293C122.934 119.777 122.625 120.453 122.625 121.32C122.625 122.016 122.918 122.605 123.504 123.09C124.098 123.566 125.102 124.004 126.516 124.402C127.938 124.801 129.047 125.242 129.844 125.727C130.648 126.203 131.242 126.762 131.625 127.402C132.016 128.043 132.211 128.797 132.211 129.664C132.211 131.047 131.672 132.156 130.594 132.992C129.516 133.82 128.074 134.234 126.27 134.234C125.098 134.234 124.004 134.012 122.988 133.566C121.973 133.113 121.188 132.496 120.633 131.715C120.086 130.934 119.812 130.047 119.812 129.055H122.074C122.074 130.086 122.453 130.902 123.211 131.504C123.977 132.098 124.996 132.395 126.27 132.395C127.457 132.395 128.367 132.152 129 131.668C129.633 131.184 129.949 130.523 129.949 129.688C129.949 128.852 129.656 128.207 129.07 127.754C128.484 127.293 127.422 126.84 125.883 126.395Z" fill="white"/>
</svg>
