<svg width="12" height="12" viewBox="0 0 12 12" fill="none" xmlns="http://www.w3.org/2000/svg">
<path id="search" d="M8.57633 7.54717H8.03088L7.8422 7.35849C8.51458 6.57976 8.91938 5.56775 8.91938 4.45969C8.91938 1.99657 6.92281 0 4.45969 0C1.99657 0 0 1.99657 0 4.45969C0 6.92281 1.99657 8.91938 4.45969 8.91938C5.56775 8.91938 6.57976 8.51458 7.35849 7.84563L7.54717 8.03431V8.57633L10.9777 12L12 10.9777L8.57633 7.54717ZM4.45969 7.54717C2.75472 7.54717 1.37221 6.16467 1.37221 4.45969C1.37221 2.75472 2.75472 1.37221 4.45969 1.37221C6.16467 1.37221 7.54717 2.75472 7.54717 4.45969C7.54717 6.16467 6.16467 7.54717 4.45969 7.54717Z" fill="#C9C9C9" fill-opacity="0.8"/>
</svg>
